# xmcd
#
# Track frame offsets: 
#        150
#        6792
#        31388
#        58217
#        78707
#        108291
#        132197
#        146315
#        169811
#        194674
#        213105
#
# Disc length: 3043 seconds
#
# Revision: 0
# Processed by: cddbd v1.4PL0 Copyright (c) Steve Scherf et al.
# Submitted via: ExactAudioCopy v0.90b3
#
DISCID=970be10b
DTITLE=Francois Houessou - So Long...
DYEAR=1998
DGENRE=Ethnic
TTITLE0=Prélude
TTITLE1=Africa
TTITLE2=Yovode
TTITLE3=So Long
TTITLE4=Gbondjide
TTITLE5=Houenou Ho (chant traditionnel)
TTITLE6=Xango
TTITLE7=Gboado
TTITLE8=Dont kill your children
TTITLE9=Love Story
TTITLE10=La voix des Gan-Gan
EXTD=
EXTT0=
EXTT1=
EXTT2=
EXTT3=
EXTT4=
EXTT5=
EXTT6=
EXTT7=
EXTT8=
EXTT9=
EXTT10=
PLAYORDER=
